<?xml version="1.0" standalone="no"?>
<svg t="1744806847247"
  class="icon" viewBox="0 0 1024 1024" version="1.1" xmlns="http://www.w3.org/2000/svg" p-id="927" width="16"
  height="16" xmlns:xlink="http://www.w3.org/1999/xlink">
  <path
    d="M532.48 718.3872a227.5328 227.5328 0 0 1 85.0432-177.5104 356.096 356.096 0 0 0-98.6624-46.7968 212.2752 212.2752 0 1 0-203.5712 0 358.4 358.4 0 0 0-242.4832 245.76 76.032 76.032 0 0 0 72.96 96.9728h419.84a226.6624 226.6624 0 0 1-33.1264-118.4256z"
    fill="#7B79FF" p-id="928"></path>
  <path d="M760.4224 718.3872m-166.2464 0a166.2464 166.2464 0 1 0 332.4928 0 166.2464 166.2464 0 1 0-332.4928 0Z"
    fill="#7B79FF" p-id="929"></path>
  <path
    d="M769.3312 830.0032a28.16 28.16 0 0 1-23.9616-13.4144l-80.9472-131.328a28.16 28.16 0 1 1 47.9232-29.5424l53.9136 87.5008 40.96-84.9408a28.16 28.16 0 1 1 50.7392 24.4224L794.6752 814.08a28.2112 28.2112 0 0 1-23.9104 15.9232z"
    fill="#FFFFFF" p-id="930"></path>
</svg>