<?xml version="1.0" standalone="no"?>
<!DOCTYPE svg PUBLIC "-//W3C//DTD SVG 1.1//EN" "http://www.w3.org/Graphics/SVG/1.1/DTD/svg11.dtd"><svg class="icon"
  width="200px" height="200.00px" viewBox="0 0 1024 1024" version="1.1" xmlns="http://www.w3.org/2000/svg">
  <path
    d="M924.7232 281.9072l-88.0128-116.4288a114.944 114.944 0 0 0-91.6992-45.6192H283.0336a114.944 114.944 0 0 0-90.8288 44.4928L101.2736 281.6a115.0976 115.0976 0 0 0-24.1152 70.4512V808.96a114.9952 114.9952 0 0 0 114.944 115.2H833.024a115.0464 115.0464 0 0 0 114.9952-115.2V351.232a114.8928 114.8928 0 0 0-23.296-69.3248z"
    fill="#FFC209" />
  <path
    d="M687.8208 119.8592h-105.0624l38.1952 166.1952H409.088L450.56 119.8592H344.8832l-41.3184 166.1952H98.048a114.9952 114.9952 0 0 0-20.8896 65.9456v36.4544h215.04v271.36a72.704 72.704 0 0 0 116.0192 58.4704l104.192-77.1584 108.544 78.336A72.7552 72.7552 0 0 0 736.4608 660.48V388.4544h211.5584V351.232a115.1488 115.1488 0 0 0-20.48-65.1776H726.016z m-53.76 482.5088l-79.104-57.088a72.3968 72.3968 0 0 0-85.8624 0.5632l-74.2912 55.04V388.4544h239.2576z"
    fill="#FFFFFF" />
</svg>